<svg xmlns="http://www.w3.org/2000/svg" xmlns:xlink="http://www.w3.org/1999/xlink" xmlns:lucid="lucid" width="1187.5" height="968.52"><g transform="translate(-1220 -1376.950156647517)" lucid:page-tab-id="0_0"><path d="M1000 1000h1500v1500H1000z" fill="#fff"/><path d="M1404.42 1562.95v9.96m0 9.97v19.93m0 9.96v19.92m0 9.97v19.92m0 9.96v19.93m0 9.96v19.92m0 9.97v19.93m0 9.96v19.9m0 9.98V1812m0 9.96v19.93m0 9.95v19.92m0 9.97v19.92m0 9.96v19.93m0 9.96v19.93m0 9.96v19.92m0 9.96v19.92m0 9.97v19.92m0 9.95v19.93m0 9.96v19.92m0 9.96v19.93m0 9.96v19.94m0 9.96v19.92m0 9.96v19.93m0 9.97v19.92m0 9.96v19.92m0 9.96v19.93m0 9.96v9.96" stroke="#333" fill="none"/><path d="M1404.9 1562.96h-.95v-.5h.95z" stroke="#333" stroke-width=".05" fill="#333"/><path d="M1404.42 2339.98v.5" stroke="#333" fill="none"/><path d="M1384.42 1654.85a8 8 0 0 1 8-8h24a8 8 0 0 1 8 8v633.88a8 8 0 0 1-8 8h-24a8 8 0 0 1-8-8z" stroke="#f2f2f2" fill="#ced4db"/><path d="M1765.26 1519.95v9.75m0 9.75v19.5m0 9.76v19.5m0 9.76v19.5m0 9.75v19.52m0 9.75v19.5m0 9.75v19.5m0 9.75v19.5m0 9.76v19.5m0 9.75v19.5m0 9.76v19.5m0 9.75v19.5m0 9.74v19.5m0 9.76v19.5m0 9.75v19.5m0 9.76v19.5m0 9.76v19.5m0 9.75v19.52m0 9.75v19.5m0 9.75v19.5m0 9.75v19.5m0 9.76v19.5m0 9.75v19.5m0 9.75v19.5m0 9.76v19.5m0 9.74v19.5m0 9.76v19.5m0 9.75v19.5m0 9.75v9.75" stroke="#333" fill="none"/><path d="M1765.73 1519.96h-.95v-.5h.95z" stroke="#333" stroke-width=".05" fill="#333"/><path d="M1765.26 2339.04v.5" stroke="#333" fill="none"/><path d="M1744.18 1708a8 8 0 0 1 8-8h24a8 8 0 0 1 8 8v484a8 8 0 0 1-8 8h-24a8 8 0 0 1-8-8z" stroke="#f2f2f2" fill="#ced4db"/><path d="M1425.42 1765.52h301.88" stroke="#333" fill="none"/><path d="M1425.43 1766h-.5v-.96h.5z" stroke="#333" stroke-width=".05" fill="#333"/><path d="M1742.07 1765.52l-14.27 4.63v-9.27z" stroke="#333" fill="#333"/><use xlink:href="#a" transform="matrix(1,0,0,1,1442.477535744049,1739.9149152355315) translate(0.0049999999999954525 14.4)"/><use xlink:href="#b" transform="matrix(1,0,0,1,1442.477535744049,1739.9149152355315) translate(56.955 14.4)"/><path d="M1309.38 1405.45a8 8 0 0 1 8-8h174.08a8 8 0 0 1 8 8v149a8 8 0 0 1-8 8h-174.08a8 8 0 0 1-8-8z" stroke="#000" stroke-opacity="0" fill="#6db1ff"/><use xlink:href="#c" transform="matrix(1,0,0,1,1317.3848257465197,1405.450156647517) translate(32.808641975308646 56.72222222222222)"/><use xlink:href="#d" transform="matrix(1,0,0,1,1317.3848257465197,1405.450156647517) translate(115.62345679012346 56.72222222222222)"/><use xlink:href="#e" transform="matrix(1,0,0,1,1317.3848257465197,1405.450156647517) translate(26.83333333333333 78.05555555555556)"/><use xlink:href="#f" transform="matrix(1,0,0,1,1317.3848257465197,1405.450156647517) translate(97.84567901234568 78.05555555555556)"/><use xlink:href="#g" transform="matrix(1,0,0,1,1317.3848257465197,1405.450156647517) translate(31.598765432098766 99.3888888888889)"/><path d="M1670.22 1405.45a8 8 0 0 1 8-8h174.07a8 8 0 0 1 8 8v106a8 8 0 0 1-8 8H1678.2a8 8 0 0 1-8-8z" stroke="#000" stroke-opacity="0" fill="#6db1ff"/><use xlink:href="#h" transform="matrix(1,0,0,1,1678.2188240747391,1405.450156647517) translate(-0.9197530864197461 56.55555555555555)"/><path d="M1743.18 2154.68h-10.6m-10.58 0h-21.18m-10.6 0h-21.18m-10.6 0h-21.18m-10.6 0h-21.17m-10.6 0h-20.13m-9.53 0h-19.07m-9.53 0h-19.07m-9.53 0h-19.07m-9.53 0h-19.07m-9.53 0h-9.53" stroke="#333" fill="none"/><path d="M1743.68 2155.15h-.5v-.95h.5z" stroke="#333" stroke-width=".05" fill="#333"/><path d="M1426.54 2154.68l14.27-4.64v9.27z" stroke="#333" fill="#333"/><use xlink:href="#i" transform="matrix(1,0,0,1,1435.027711276538,2163.311580790812) translate(0.0049999999999954525 14.4)"/><use xlink:href="#j" transform="matrix(1,0,0,1,1435.027711276538,2163.311580790812) translate(94.855 14.4)"/><use xlink:href="#k" transform="matrix(1,0,0,1,1435.027711276538,2163.311580790812) translate(202.65500000000003 14.4)"/><path d="M2124.52 1545.86v9.84m0 9.84v19.68m0 9.85v19.68m0 9.84v19.67m0 9.84v19.7m0 9.83v19.68m0 9.86v19.68m0 9.84v19.68m0 9.84v19.68m0 9.84v19.68m0 9.84v19.7m0 9.83v19.68m0 9.84v19.67m0 9.84v19.7m0 9.84v19.68m0 9.84v19.68m0 9.84v19.68m0 9.84v19.68m0 9.84v19.7m0 9.83v19.68m0 9.84v19.68m0 9.84v19.67m0 9.84v19.7m0 9.84v19.68m0 9.84v19.68m0 9.84v19.68m0 9.84v19.68m0 9.85v9.84" stroke="#333" fill="none"/><path d="M2125 1545.88h-.96v-.52h.95z" stroke="#333" stroke-width=".05" fill="#333"/><path d="M2124.52 2342.95v.52" stroke="#333" fill="none"/><path d="M2104.52 1808a8 8 0 0 1 8-8h24a8 8 0 0 1 8 8v324a8 8 0 0 1-8 8h-24a8 8 0 0 1-8-8z" stroke="#f2f2f2" fill="#ced4db"/><path d="M1785.18 1836.02h302.45" stroke="#333" fill="none"/><path d="M1785.2 1836.5h-.52v-.96h.52z" stroke="#333" stroke-width=".05" fill="#333"/><path d="M2102.4 1836.02l-14.27 4.63v-9.27z" stroke="#333" fill="#333"/><use xlink:href="#l" transform="matrix(1,0,0,1,1865.4998892693773,1810.4156512875577) translate(0.0049999999999954525 14.4)"/><path d="M2029.48 1409.36a8 8 0 0 1 8-8h174.07a8 8 0 0 1 8 8v128a8 8 0 0 1-8 8h-174.07a8 8 0 0 1-8-8z" stroke="#000" stroke-opacity="0" fill="#6db1ff"/><use xlink:href="#m" transform="matrix(1,0,0,1,2037.4793177761737,1409.3620091419843) translate(28.808641975308632 56.888888888888886)"/><use xlink:href="#n" transform="matrix(1,0,0,1,2037.4793177761737,1409.3620091419843) translate(37.74691358024691 78.22222222222223)"/><path d="M2103.52 2090.36h-10.63m-10.64 0H2061m-10.62 0h-21.26m-10.63 0h-21.26m-10.63 0h-21.24m-10.63 0H1934.53m-9.57 0h-19.13m-9.57 0h-19.14m-9.57 0h-19.14m-9.56 0h-19.13m-9.56 0h-9.57M2103.5 2090.36h.52" stroke="#333" fill="none"/><path d="M1785.8 2090.36l14.27-4.64v9.28z" stroke="#333" fill="#333"/><use xlink:href="#i" transform="matrix(1,0,0,1,1794.8250778226436,2098.9959652083203) translate(0.0049999999999954525 14.4)"/><use xlink:href="#j" transform="matrix(1,0,0,1,1794.8250778226436,2098.9959652083203) translate(94.855 14.4)"/><use xlink:href="#k" transform="matrix(1,0,0,1,1794.8250778226436,2098.9959652083203) translate(202.65500000000003 14.4)"/><path d="M2103.52 1940h-10.1m-10.07 0h-20.16m-10.1 0h-20.15m-10.1 0h-20.15m-10.08 0h-20.16m-10.1 0h-20.15m-10.07 0h-20.17m-10.08 0h-20.16m-10.08 0h-20.17m-10.08 0h-20.17m-10.08 0h-10.08" stroke="#333" fill="none"/><path d="M2104.02 1940.47h-.52v-.94h.52z" stroke="#333" stroke-width=".05" fill="#333"/><path d="M1786.3 1940l14.27-4.63v9.27z" stroke="#333" fill="#333"/><use xlink:href="#o" transform="matrix(1,0,0,1,1793.0499160585414,1948.635299617849) translate(0.0049999999999954525 14.4)"/><use xlink:href="#p" transform="matrix(1,0,0,1,1793.0499160585414,1948.635299617849) translate(49.855 14.4)"/><use xlink:href="#q" transform="matrix(1,0,0,1,1793.0499160585414,1948.635299617849) translate(64.85499999999999 14.4)"/><use xlink:href="#r" transform="matrix(1,0,0,1,1793.0499160585414,1948.635299617849) translate(109.05499999999999 14.4)"/><use xlink:href="#s" transform="matrix(1,0,0,1,1793.0499160585414,1948.635299617849) translate(174.905 14.4)"/><use xlink:href="#t" transform="matrix(1,0,0,1,1793.0499160585414,1948.635299617849) translate(195.855 14.4)"/><use xlink:href="#u" transform="matrix(1,0,0,1,1793.0499160585414,1948.635299617849) translate(251.70499999999998 14.4)"/><path d="M1240 1688a8 8 0 0 1 8-8h104a8 8 0 0 1 8 8v84a8 8 0 0 1-8 8h-104a8 8 0 0 1-8-8z" fill="none"/><use xlink:href="#v" transform="matrix(1,0,0,1,1240,1680) translate(4.049999999999997 21.19999999999999)"/><use xlink:href="#w" transform="matrix(1,0,0,1,1240,1680) translate(46.95 21.19999999999999)"/><use xlink:href="#x" transform="matrix(1,0,0,1,1240,1680) translate(100.95 21.19999999999999)"/><use xlink:href="#y" transform="matrix(1,0,0,1,1240,1680) translate(22.025 42.79999999999999)"/><use xlink:href="#z" transform="matrix(1,0,0,1,1240,1680) translate(65.975 42.79999999999999)"/><use xlink:href="#A" transform="matrix(1,0,0,1,1240,1680) translate(8.125 64.39999999999999)"/><use xlink:href="#B" transform="matrix(1,0,0,1,1240,1680) translate(60.975 64.39999999999999)"/><use xlink:href="#C" transform="matrix(1,0,0,1,1240,1680) translate(15.099999999999994 86)"/><path d="M1240 2148a8 8 0 0 1 8-8h104a8 8 0 0 1 8 8v124a8 8 0 0 1-8 8h-104a8 8 0 0 1-8-8z" fill="none"/><g><use xlink:href="#D" transform="matrix(1,0,0,1,1240,2140) translate(23.049999999999997 19.6)"/><use xlink:href="#E" transform="matrix(1,0,0,1,1240,2140) translate(17.574999999999996 41.2)"/><use xlink:href="#F" transform="matrix(1,0,0,1,1240,2140) translate(9.549999999999997 62.800000000000004)"/><use xlink:href="#G" transform="matrix(1,0,0,1,1240,2140) translate(71.44999999999999 62.800000000000004)"/><use xlink:href="#H" transform="matrix(1,0,0,1,1240,2140) translate(13.575000000000003 84.40000000000002)"/><use xlink:href="#I" transform="matrix(1,0,0,1,1240,2140) translate(52.475 84.40000000000002)"/><use xlink:href="#J" transform="matrix(1,0,0,1,1240,2140) translate(71.425 84.40000000000002)"/><use xlink:href="#K" transform="matrix(1,0,0,1,1240,2140) translate(10.600000000000001 106.00000000000001)"/><use xlink:href="#L" transform="matrix(1,0,0,1,1240,2140) translate(41.55 106.00000000000001)"/><use xlink:href="#M" transform="matrix(1,0,0,1,1240,2140) translate(79.4 106.00000000000001)"/><use xlink:href="#K" transform="matrix(1,0,0,1,1240,2140) translate(31.049999999999997 127.60000000000001)"/><use xlink:href="#N" transform="matrix(1,0,0,1,1240,2140) translate(62 127.60000000000001)"/></g><path d="M2160 1848a8 8 0 0 1 8-8h124a8 8 0 0 1 8 8v106a8 8 0 0 1-8 8h-124a8 8 0 0 1-8-8z" fill="none"/><g><use xlink:href="#O" transform="matrix(1,0,0,1,2160,1840) translate(17.075000000000003 14.4)"/><use xlink:href="#P" transform="matrix(1,0,0,1,2160,1840) translate(61.925000000000004 14.4)"/><use xlink:href="#Q" transform="matrix(1,0,0,1,2160,1840) translate(8.599999999999994 36)"/><use xlink:href="#R" transform="matrix(1,0,0,1,2160,1840) translate(57.55 36)"/><use xlink:href="#S" transform="matrix(1,0,0,1,2160,1840) translate(97.5 36)"/><use xlink:href="#T" transform="matrix(1,0,0,1,2160,1840) translate(4.049999999999997 57.6)"/><use xlink:href="#U" transform="matrix(1,0,0,1,2160,1840) translate(21.999999999999996 57.6)"/><use xlink:href="#V" transform="matrix(1,0,0,1,2160,1840) translate(52 57.6)"/><use xlink:href="#M" transform="matrix(1,0,0,1,2160,1840) translate(105.95 57.6)"/><use xlink:href="#W" transform="matrix(1,0,0,1,2160,1840) translate(13.549999999999997 79.20000000000002)"/><use xlink:href="#X" transform="matrix(1,0,0,1,2160,1840) translate(48.55 79.20000000000002)"/><use xlink:href="#Y" transform="matrix(1,0,0,1,2160,1840) translate(105.5 79.20000000000002)"/><use xlink:href="#Z" transform="matrix(1,0,0,1,2160,1840) translate(5.099999999999994 100.80000000000001)"/><use xlink:href="#aa" transform="matrix(1,0,0,1,2160,1840) translate(41 100.80000000000001)"/><use xlink:href="#ab" transform="matrix(1,0,0,1,2160,1840) translate(75.9 100.80000000000001)"/><use xlink:href="#ac" transform="matrix(1,0,0,1,2160,1840) translate(110.9 100.80000000000001)"/><use xlink:href="#T" transform="matrix(1,0,0,1,2160,1840) translate(20.9 122.4)"/><use xlink:href="#ad" transform="matrix(1,0,0,1,2160,1840) translate(38.849999999999994 122.4)"/><use xlink:href="#ae" transform="matrix(1,0,0,1,2160,1840) translate(53.85 122.4)"/></g><path d="M1520 1568a8 8 0 0 1 8-8h164a8 8 0 0 1 8 8v124a8 8 0 0 1-8 8h-164a8 8 0 0 1-8-8z" fill="none"/><g><use xlink:href="#af" transform="matrix(1,0,0,1,1520,1560) translate(20.599999999999994 19.6)"/><use xlink:href="#ag" transform="matrix(1,0,0,1,1520,1560) translate(71.5 19.6)"/><use xlink:href="#ah" transform="matrix(1,0,0,1,1520,1560) translate(144.4 19.6)"/><use xlink:href="#ai" transform="matrix(1,0,0,1,1520,1560) translate(4.074999999999989 41.2)"/><use xlink:href="#aj" transform="matrix(1,0,0,1,1520,1560) translate(82.02499999999999 41.2)"/><use xlink:href="#ak" transform="matrix(1,0,0,1,1520,1560) translate(150.925 41.2)"/><use xlink:href="#al" transform="matrix(1,0,0,1,1520,1560) translate(25.625 62.800000000000004)"/><use xlink:href="#am" transform="matrix(1,0,0,1,1520,1560) translate(39.575 62.800000000000004)"/><use xlink:href="#an" transform="matrix(1,0,0,1,1520,1560) translate(62.525 62.800000000000004)"/><use xlink:href="#ao" transform="matrix(1,0,0,1,1520,1560) translate(138.425 62.800000000000004)"/><use xlink:href="#ap" transform="matrix(1,0,0,1,1520,1560) translate(22.099999999999994 84.40000000000002)"/><use xlink:href="#aq" transform="matrix(1,0,0,1,1520,1560) translate(88.05 84.40000000000002)"/><use xlink:href="#ar" transform="matrix(1,0,0,1,1520,1560) translate(151.95000000000002 84.40000000000002)"/><use xlink:href="#as" transform="matrix(1,0,0,1,1520,1560) translate(24.599999999999994 106.00000000000001)"/><use xlink:href="#at" transform="matrix(1,0,0,1,1520,1560) translate(142.45 106.00000000000001)"/><use xlink:href="#au" transform="matrix(1,0,0,1,1520,1560) translate(9.625 127.60000000000001)"/><use xlink:href="#av" transform="matrix(1,0,0,1,1520,1560) translate(83.525 127.60000000000001)"/></g><g transform="matrix(1,0,0,1,1520,1560)"><a xlink:href="http://nsitapara.com" target="_blank"><path class="lucid-link lucid-hotspot lucid-overlay-hotspot" fill-opacity="0" d="M24.6 91.6h112.85v21.6H24.6z"/></a></g><path d="M2160 2068a8 8 0 0 1 8-8h208.52a8 8 0 0 1 8 8v104a8 8 0 0 1-8 8H2168a8 8 0 0 1-8-8z" fill="none"/><g><use xlink:href="#aw" transform="matrix(1,0,0,1,2160,2060) translate(9.149999999999991 20.39999999999999)"/><use xlink:href="#ax" transform="matrix(1,0,0,1,2160,2060) translate(88.05 20.39999999999999)"/><use xlink:href="#ay" transform="matrix(1,0,0,1,2160,2060) translate(107 20.39999999999999)"/><use xlink:href="#az" transform="matrix(1,0,0,1,2160,2060) translate(159.95 20.39999999999999)"/><use xlink:href="#aA" transform="matrix(1,0,0,1,2160,2060) translate(109.5 41.99999999999999)"/><use xlink:href="#aB" transform="matrix(1,0,0,1,2160,2060) translate(0 63.599999999999994)"/><use xlink:href="#aC" transform="matrix(1,0,0,1,2160,2060) translate(122.5 63.599999999999994)"/><use xlink:href="#aD" transform="matrix(1,0,0,1,2160,2060) translate(2.950000000000003 85.20000000000002)"/><use xlink:href="#aC" transform="matrix(1,0,0,1,2160,2060) translate(119.55 85.20000000000002)"/><use xlink:href="#aE" transform="matrix(1,0,0,1,2160,2060) translate(109.5 106.80000000000001)"/></g><path d="M1448.85 1788a8 8 0 0 1 8-8h224a8 8 0 0 1 8 8v44a8 8 0 0 1-8 8h-224a8 8 0 0 1-8-8z" fill="none"/><g><use xlink:href="#aF" transform="matrix(1,0,0,1,1448.8448896228865,1780) translate(117 14.4)"/><use xlink:href="#aG" transform="matrix(1,0,0,1,1448.8448896228865,1780) translate(49.3 36)"/><use xlink:href="#aH" transform="matrix(1,0,0,1,1448.8448896228865,1780) translate(117 57.6)"/></g><path d="M1743.18 1976.26h-10.06m-10.06 0h-20.13m-10.06 0h-20.13m-10.06 0h-20.12m-10.07 0h-20.13m-10.06 0h-20.12m-10.06 0H1552m-10.07 0h-20.12m-10.06 0h-20.12m-10.06 0h-20.13m-10.06 0h-10.06" stroke="#333" fill="none"/><path d="M1743.68 1976.73h-.5v-.95h.5z" stroke="#333" stroke-width=".05" fill="#333"/><path d="M1426.54 1976.26l14.27-4.64v9.27z" stroke="#333" fill="#333"/><g><use xlink:href="#o" transform="matrix(1,0,0,1,1433.0026787711968,1984.8913123692666) translate(0.0049999999999954525 14.4)"/><use xlink:href="#p" transform="matrix(1,0,0,1,1433.0026787711968,1984.8913123692666) translate(49.855 14.4)"/><use xlink:href="#q" transform="matrix(1,0,0,1,1433.0026787711968,1984.8913123692666) translate(64.85499999999999 14.4)"/><use xlink:href="#r" transform="matrix(1,0,0,1,1433.0026787711968,1984.8913123692666) translate(109.05499999999999 14.4)"/><use xlink:href="#s" transform="matrix(1,0,0,1,1433.0026787711968,1984.8913123692666) translate(174.905 14.4)"/><use xlink:href="#t" transform="matrix(1,0,0,1,1433.0026787711968,1984.8913123692666) translate(195.855 14.4)"/><use xlink:href="#u" transform="matrix(1,0,0,1,1433.0026787711968,1984.8913123692666) translate(251.70499999999998 14.4)"/></g><defs><path fill="#3a414a" d="M30-248c87 1 191-15 191 75 0 78-77 80-158 76V0H30v-248zm33 125c57 0 124 11 124-50 0-59-68-47-124-48v98" id="aI"/><path fill="#3a414a" d="M140-251c81 0 123 46 123 126C263-46 219 4 140 4 59 4 17-45 17-125s42-126 123-126zm0 227c63 0 89-41 89-101s-29-99-89-99c-61 0-89 39-89 99S79-25 140-24" id="aJ"/><path fill="#3a414a" d="M185-189c-5-48-123-54-124 2 14 75 158 14 163 119 3 78-121 87-175 55-17-10-28-26-33-46l33-7c5 56 141 63 141-1 0-78-155-14-162-118-5-82 145-84 179-34 5 7 8 16 11 25" id="aK"/><path fill="#3a414a" d="M127-220V0H93v-220H8v-28h204v28h-85" id="aL"/><path fill="#3a414a" d="M33-154v-36h34v36H33zM33 0v-36h34V0H33" id="aM"/><g id="a"><use transform="matrix(0.05,0,0,0.05,0,0)" xlink:href="#aI"/><use transform="matrix(0.05,0,0,0.05,12,0)" xlink:href="#aJ"/><use transform="matrix(0.05,0,0,0.05,26,0)" xlink:href="#aK"/><use transform="matrix(0.05,0,0,0.05,38,0)" xlink:href="#aL"/><use transform="matrix(0.05,0,0,0.05,46.95,0)" xlink:href="#aM"/></g><path fill="#3a414a" d="M117-194c89-4 53 116 60 194h-32v-121c0-31-8-49-39-48C34-167 62-67 57 0H25l-1-190h30c1 10-1 24 2 32 11-22 29-35 61-36" id="aN"/><path fill="#3a414a" d="M135-143c-3-34-86-38-87 0 15 53 115 12 119 90S17 21 10-45l28-5c4 36 97 45 98 0-10-56-113-15-118-90-4-57 82-63 122-42 12 7 21 19 24 35" id="aO"/><path fill="#3a414a" d="M24-231v-30h32v30H24zM24 0v-190h32V0H24" id="aP"/><path fill="#3a414a" d="M59-47c-2 24 18 29 38 22v24C64 9 27 4 27-40v-127H5v-23h24l9-43h21v43h35v23H59v120" id="aQ"/><path fill="#3a414a" d="M141-36C126-15 110 5 73 4 37 3 15-17 15-53c-1-64 63-63 125-63 3-35-9-54-41-54-24 1-41 7-42 31l-33-3c5-37 33-52 76-52 45 0 72 20 72 64v82c-1 20 7 32 28 27v20c-31 9-61-2-59-35zM48-53c0 20 12 33 32 33 41-3 63-29 60-74-43 2-92-5-92 41" id="aR"/><path fill="#3a414a" d="M115-194c55 1 70 41 70 98S169 2 115 4C84 4 66-9 55-30l1 105H24l-1-265h31l2 30c10-21 28-34 59-34zm-8 174c40 0 45-34 45-75s-6-73-45-74c-42 0-51 32-51 76 0 43 10 73 51 73" id="aS"/><path fill="#3a414a" d="M114-163C36-179 61-72 57 0H25l-1-190h30c1 12-1 29 2 39 6-27 23-49 58-41v29" id="aT"/><path fill="#3a414a" d="M33 0v-38h34V0H33" id="aU"/><path fill="#3a414a" d="M96-169c-40 0-48 33-48 73s9 75 48 75c24 0 41-14 43-38l32 2c-6 37-31 61-74 61-59 0-76-41-82-99-10-93 101-131 147-64 4 7 5 14 7 22l-32 3c-4-21-16-35-41-35" id="aV"/><path fill="#3a414a" d="M100-194c62-1 85 37 85 99 1 63-27 99-86 99S16-35 15-95c0-66 28-99 85-99zM99-20c44 1 53-31 53-75 0-43-8-75-51-75s-53 32-53 75 10 74 51 75" id="aW"/><path fill="#3a414a" d="M210-169c-67 3-38 105-44 169h-31v-121c0-29-5-50-35-48C34-165 62-65 56 0H25l-1-190h30c1 10-1 24 2 32 10-44 99-50 107 0 11-21 27-35 58-36 85-2 47 119 55 194h-31v-121c0-29-5-49-35-48" id="aX"/><path fill="#3a414a" d="M0 4l72-265h28L28 4H0" id="aY"/><path fill="#3a414a" d="M100-194c63 0 86 42 84 106H49c0 40 14 67 53 68 26 1 43-12 49-29l28 8c-11 28-37 45-77 45C44 4 14-33 15-96c1-61 26-98 85-98zm52 81c6-60-76-77-97-28-3 7-6 17-6 28h103" id="aZ"/><path fill="#3a414a" d="M16-82v-28h88v28H16" id="ba"/><g id="b"><use transform="matrix(0.05,0,0,0.05,0,0)" xlink:href="#aN"/><use transform="matrix(0.05,0,0,0.05,10,0)" xlink:href="#aO"/><use transform="matrix(0.05,0,0,0.05,19,0)" xlink:href="#aP"/><use transform="matrix(0.05,0,0,0.05,22.95,0)" xlink:href="#aQ"/><use transform="matrix(0.05,0,0,0.05,27.950000000000003,0)" xlink:href="#aR"/><use transform="matrix(0.05,0,0,0.05,37.95,0)" xlink:href="#aS"/><use transform="matrix(0.05,0,0,0.05,47.95,0)" xlink:href="#aR"/><use transform="matrix(0.05,0,0,0.05,57.95,0)" xlink:href="#aT"/><use transform="matrix(0.05,0,0,0.05,63.900000000000006,0)" xlink:href="#aR"/><use transform="matrix(0.05,0,0,0.05,73.9,0)" xlink:href="#aU"/><use transform="matrix(0.05,0,0,0.05,78.9,0)" xlink:href="#aV"/><use transform="matrix(0.05,0,0,0.05,87.9,0)" xlink:href="#aW"/><use transform="matrix(0.05,0,0,0.05,97.9,0)" xlink:href="#aX"/><use transform="matrix(0.05,0,0,0.05,112.85000000000001,0)" xlink:href="#aY"/><use transform="matrix(0.05,0,0,0.05,117.85000000000001,0)" xlink:href="#aR"/><use transform="matrix(0.05,0,0,0.05,127.85000000000001,0)" xlink:href="#aS"/><use transform="matrix(0.05,0,0,0.05,137.85000000000002,0)" xlink:href="#aP"/><use transform="matrix(0.05,0,0,0.05,141.8,0)" xlink:href="#aY"/><use transform="matrix(0.05,0,0,0.05,146.8,0)" xlink:href="#aT"/><use transform="matrix(0.05,0,0,0.05,152.75,0)" xlink:href="#aR"/><use transform="matrix(0.05,0,0,0.05,162.75,0)" xlink:href="#aV"/><use transform="matrix(0.05,0,0,0.05,171.75,0)" xlink:href="#aZ"/><use transform="matrix(0.05,0,0,0.05,181.75,0)" xlink:href="#ba"/><use transform="matrix(0.05,0,0,0.05,187.7,0)" xlink:href="#aS"/><use transform="matrix(0.05,0,0,0.05,197.7,0)" xlink:href="#aR"/><use transform="matrix(0.05,0,0,0.05,207.69999999999996,0)" xlink:href="#aV"/><use transform="matrix(0.05,0,0,0.05,216.69999999999996,0)" xlink:href="#aZ"/></g><path fill="#333" d="M212-179c-10-28-35-45-73-45-59 0-87 40-87 99 0 60 29 101 89 101 43 0 62-24 78-52l27 14C228-24 195 4 139 4 59 4 22-46 18-125c-6-104 99-153 187-111 19 9 31 26 39 46" id="bb"/><path fill="#333" d="M100-194c62-1 85 37 85 99 1 63-27 99-86 99S16-35 15-95c0-66 28-99 85-99zM99-20c44 1 53-31 53-75 0-43-8-75-51-75s-53 32-53 75 10 74 51 75" id="bc"/><path fill="#333" d="M117-194c89-4 53 116 60 194h-32v-121c0-31-8-49-39-48C34-167 62-67 57 0H25l-1-190h30c1 10-1 24 2 32 11-22 29-35 61-36" id="bd"/><path fill="#333" d="M108 0H70L1-190h34L89-25l56-165h34" id="be"/><path fill="#333" d="M100-194c63 0 86 42 84 106H49c0 40 14 67 53 68 26 1 43-12 49-29l28 8c-11 28-37 45-77 45C44 4 14-33 15-96c1-61 26-98 85-98zm52 81c6-60-76-77-97-28-3 7-6 17-6 28h103" id="bf"/><path fill="#333" d="M114-163C36-179 61-72 57 0H25l-1-190h30c1 12-1 29 2 39 6-27 23-49 58-41v29" id="bg"/><path fill="#333" d="M59-47c-2 24 18 29 38 22v24C64 9 27 4 27-40v-127H5v-23h24l9-43h21v43h35v23H59v120" id="bh"/><g id="c"><use transform="matrix(0.04938271604938272,0,0,0.04938271604938272,0,0)" xlink:href="#bb"/><use transform="matrix(0.04938271604938272,0,0,0.04938271604938272,12.790123456790125,0)" xlink:href="#bc"/><use transform="matrix(0.04938271604938272,0,0,0.04938271604938272,22.66666666666667,0)" xlink:href="#bd"/><use transform="matrix(0.04938271604938272,0,0,0.04938271604938272,32.543209876543216,0)" xlink:href="#be"/><use transform="matrix(0.04938271604938272,0,0,0.04938271604938272,41.4320987654321,0)" xlink:href="#bf"/><use transform="matrix(0.04938271604938272,0,0,0.04938271604938272,51.308641975308646,0)" xlink:href="#bg"/><use transform="matrix(0.04938271604938272,0,0,0.04938271604938272,57.18518518518519,0)" xlink:href="#bh"/><use transform="matrix(0.04938271604938272,0,0,0.04938271604938272,62.12345679012346,0)" xlink:href="#bf"/><use transform="matrix(0.04938271604938272,0,0,0.04938271604938272,72,0)" xlink:href="#bg"/><path fill="#333" d="M-.9 1.23h84.6v1.3H-.9z"/></g><path fill="#333" d="M63-220v92h138v28H63V0H30v-248h175v28H63" id="bi"/><g id="d"><use transform="matrix(0.04938271604938272,0,0,0.04938271604938272,0,0)" xlink:href="#bi"/><use transform="matrix(0.04938271604938272,0,0,0.04938271604938272,10.814814814814815,0)" xlink:href="#bc"/><use transform="matrix(0.04938271604938272,0,0,0.04938271604938272,20.69135802469136,0)" xlink:href="#bg"/><path fill="#333" d="M-.9 1.23h28.36v1.3H-.9z"/></g><path fill="#333" d="M233-177c-1 41-23 64-60 70L243 0h-38l-65-103H63V0H30v-248c88 3 205-21 203 71zM63-129c60-2 137 13 137-47 0-61-80-42-137-45v92" id="bj"/><path fill="#333" d="M84 4C-5 8 30-112 23-190h32v120c0 31 7 50 39 49 72-2 45-101 50-169h31l1 190h-30c-1-10 1-25-2-33-11 22-28 36-60 37" id="bk"/><path fill="#333" d="M24-231v-30h32v30H24zM24 0v-190h32V0H24" id="bl"/><path fill="#333" d="M177-190C167-65 218 103 67 71c-23-6-38-20-44-43l32-5c15 47 100 32 89-28v-30C133-14 115 1 83 1 29 1 15-40 15-95c0-56 16-97 71-98 29-1 48 16 59 35 1-10 0-23 2-32h30zM94-22c36 0 50-32 50-73 0-42-14-75-50-75-39 0-46 34-46 75s6 73 46 73" id="bm"/><g id="e"><use transform="matrix(0.04938271604938272,0,0,0.04938271604938272,0,0)" xlink:href="#bj"/><use transform="matrix(0.04938271604938272,0,0,0.04938271604938272,12.790123456790125,0)" xlink:href="#bk"/><use transform="matrix(0.04938271604938272,0,0,0.04938271604938272,22.66666666666667,0)" xlink:href="#bd"/><use transform="matrix(0.04938271604938272,0,0,0.04938271604938272,32.543209876543216,0)" xlink:href="#bd"/><use transform="matrix(0.04938271604938272,0,0,0.04938271604938272,42.41975308641976,0)" xlink:href="#bl"/><use transform="matrix(0.04938271604938272,0,0,0.04938271604938272,46.320987654320994,0)" xlink:href="#bd"/><use transform="matrix(0.04938271604938272,0,0,0.04938271604938272,56.19753086419754,0)" xlink:href="#bm"/><path fill="#333" d="M-.9 1.23h72.8v1.3H-.9z"/></g><path fill="#333" d="M141-36C126-15 110 5 73 4 37 3 15-17 15-53c-1-64 63-63 125-63 3-35-9-54-41-54-24 1-41 7-42 31l-33-3c5-37 33-52 76-52 45 0 72 20 72 64v82c-1 20 7 32 28 27v20c-31 9-61-2-59-35zM48-53c0 20 12 33 32 33 41-3 63-29 60-74-43 2-92-5-92 41" id="bn"/><path fill="#333" d="M96-169c-40 0-48 33-48 73s9 75 48 75c24 0 41-14 43-38l32 2c-6 37-31 61-74 61-59 0-76-41-82-99-10-93 101-131 147-64 4 7 5 14 7 22l-32 3c-4-21-16-35-41-35" id="bo"/><path fill="#333" d="M135-143c-3-34-86-38-87 0 15 53 115 12 119 90S17 21 10-45l28-5c4 36 97 45 98 0-10-56-113-15-118-90-4-57 82-63 122-42 12 7 21 19 24 35" id="bp"/><g id="f"><use transform="matrix(0.04938271604938272,0,0,0.04938271604938272,0,0)" xlink:href="#bj"/><use transform="matrix(0.04938271604938272,0,0,0.04938271604938272,12.790123456790125,0)" xlink:href="#bn"/><use transform="matrix(0.04938271604938272,0,0,0.04938271604938272,22.66666666666667,0)" xlink:href="#bo"/><use transform="matrix(0.04938271604938272,0,0,0.04938271604938272,31.555555555555557,0)" xlink:href="#bf"/><use transform="matrix(0.04938271604938272,0,0,0.04938271604938272,41.4320987654321,0)" xlink:href="#bp"/><path fill="#333" d="M-.9 1.23h52.1v1.3H-.9z"/></g><path fill="#333" d="M205 0l-28-72H64L36 0H1l101-248h38L239 0h-34zm-38-99l-47-123c-12 45-31 82-46 123h93" id="bq"/><path fill="#333" d="M115-194c55 1 70 41 70 98S169 2 115 4C84 4 66-9 55-30l1 105H24l-1-265h31l2 30c10-21 28-34 59-34zm-8 174c40 0 45-34 45-75s-6-73-45-74c-42 0-51 32-51 76 0 43 10 73 51 73" id="br"/><path fill="#333" d="M87 75C49 33 22-17 22-94c0-76 28-126 65-167h31c-38 41-64 92-64 168S80 34 118 75H87" id="bs"/><path fill="#333" d="M197 0v-115H63V0H30v-248h33v105h134v-105h34V0h-34" id="bt"/><path fill="#333" d="M179-190L93 31C79 59 56 82 12 73V49c39 6 53-20 64-50L1-190h34L92-34l54-156h33" id="bu"/><path fill="#333" d="M47-170H22l-4-78h33" id="bv"/><path fill="#333" d="M33-261c38 41 65 92 65 168S71 34 33 75H2C39 34 66-17 66-93S39-220 2-261h31" id="bw"/><g id="g"><use transform="matrix(0.04938271604938272,0,0,0.04938271604938272,0,0)" xlink:href="#bq"/><use transform="matrix(0.04938271604938272,0,0,0.04938271604938272,11.851851851851853,0)" xlink:href="#br"/><use transform="matrix(0.04938271604938272,0,0,0.04938271604938272,21.7283950617284,0)" xlink:href="#br"/><use transform="matrix(0.04938271604938272,0,0,0.04938271604938272,31.60493827160494,0)" xlink:href="#bs"/><use transform="matrix(0.04938271604938272,0,0,0.04938271604938272,37.48148148148149,0)" xlink:href="#bt"/><use transform="matrix(0.04938271604938272,0,0,0.04938271604938272,50.271604938271615,0)" xlink:href="#bn"/><use transform="matrix(0.04938271604938272,0,0,0.04938271604938272,60.14814814814817,0)" xlink:href="#bg"/><use transform="matrix(0.04938271604938272,0,0,0.04938271604938272,66.0246913580247,0)" xlink:href="#be"/><use transform="matrix(0.04938271604938272,0,0,0.04938271604938272,74.91358024691358,0)" xlink:href="#bf"/><use transform="matrix(0.04938271604938272,0,0,0.04938271604938272,84.79012345679013,0)" xlink:href="#bu"/><use transform="matrix(0.04938271604938272,0,0,0.04938271604938272,93.67901234567901,0)" xlink:href="#bv"/><use transform="matrix(0.04938271604938272,0,0,0.04938271604938272,97.03703703703704,0)" xlink:href="#bp"/><use transform="matrix(0.04938271604938272,0,0,0.04938271604938272,105.92592592592594,0)" xlink:href="#bw"/><path fill="#333" d="M-.9 1.23h113.6v1.3H-.9z"/></g><path fill="#333" d="M30-248c87 1 191-15 191 75 0 78-77 80-158 76V0H30v-248zm33 125c57 0 124 11 124-50 0-59-68-47-124-48v98" id="bx"/><path fill="#333" d="M24 0v-261h32V0H24" id="by"/><path fill="#333" d="M190 0L58-211 59 0H30v-248h39L202-35l-2-213h31V0h-41" id="bz"/><path fill="#333" d="M106-169C34-169 62-67 57 0H25v-261h32l-1 103c12-21 28-36 61-36 89 0 53 116 60 194h-32v-121c2-32-8-49-39-48" id="bA"/><g id="h"><use transform="matrix(0.04938271604938272,0,0,0.04938271604938272,0,0)" xlink:href="#bj"/><use transform="matrix(0.04938271604938272,0,0,0.04938271604938272,12.790123456790125,0)" xlink:href="#bn"/><use transform="matrix(0.04938271604938272,0,0,0.04938271604938272,22.66666666666667,0)" xlink:href="#bo"/><use transform="matrix(0.04938271604938272,0,0,0.04938271604938272,31.555555555555557,0)" xlink:href="#bf"/><use transform="matrix(0.04938271604938272,0,0,0.04938271604938272,41.4320987654321,0)" xlink:href="#bx"/><use transform="matrix(0.04938271604938272,0,0,0.04938271604938272,53.283950617283956,0)" xlink:href="#bn"/><use transform="matrix(0.04938271604938272,0,0,0.04938271604938272,63.1604938271605,0)" xlink:href="#bo"/><use transform="matrix(0.04938271604938272,0,0,0.04938271604938272,72.0493827160494,0)" xlink:href="#bf"/><use transform="matrix(0.04938271604938272,0,0,0.04938271604938272,81.92592592592594,0)" xlink:href="#bb"/><use transform="matrix(0.04938271604938272,0,0,0.04938271604938272,94.71604938271606,0)" xlink:href="#bn"/><use transform="matrix(0.04938271604938272,0,0,0.04938271604938272,104.5925925925926,0)" xlink:href="#by"/><use transform="matrix(0.04938271604938272,0,0,0.04938271604938272,108.49382716049386,0)" xlink:href="#bo"/><use transform="matrix(0.04938271604938272,0,0,0.04938271604938272,117.38271604938272,0)" xlink:href="#bs"/><use transform="matrix(0.04938271604938272,0,0,0.04938271604938272,123.25925925925927,0)" xlink:href="#bz"/><use transform="matrix(0.04938271604938272,0,0,0.04938271604938272,136.0493827160494,0)" xlink:href="#bl"/><use transform="matrix(0.04938271604938272,0,0,0.04938271604938272,139.95061728395063,0)" xlink:href="#bp"/><use transform="matrix(0.04938271604938272,0,0,0.04938271604938272,148.83950617283952,0)" xlink:href="#bA"/><use transform="matrix(0.04938271604938272,0,0,0.04938271604938272,158.71604938271605,0)" xlink:href="#bv"/><use transform="matrix(0.04938271604938272,0,0,0.04938271604938272,162.07407407407408,0)" xlink:href="#bp"/><use transform="matrix(0.04938271604938272,0,0,0.04938271604938272,170.96296296296296,0)" xlink:href="#bw"/><path fill="#333" d="M-.9 1.23h178.63v1.3H-.9z"/></g><path fill="#3a414a" d="M212-179c-10-28-35-45-73-45-59 0-87 40-87 99 0 60 29 101 89 101 43 0 62-24 78-52l27 14C228-24 195 4 139 4 59 4 22-46 18-125c-6-104 99-153 187-111 19 9 31 26 39 46" id="bB"/><path fill="#3a414a" d="M24 0v-261h32V0H24" id="bC"/><path fill="#3a414a" d="M84 4C-5 8 30-112 23-190h32v120c0 31 7 50 39 49 72-2 45-101 50-169h31l1 190h-30c-1-10 1-25-2-33-11 22-28 36-60 37" id="bD"/><path fill="#3a414a" d="M85-194c31 0 48 13 60 33l-1-100h32l1 261h-30c-2-10 0-23-3-31C134-8 116 4 85 4 32 4 16-35 15-94c0-66 23-100 70-100zm9 24c-40 0-46 34-46 75 0 40 6 74 45 74 42 0 51-32 51-76 0-42-9-74-50-73" id="bE"/><g id="i"><use transform="matrix(0.05,0,0,0.05,0,0)" xlink:href="#bB"/><use transform="matrix(0.05,0,0,0.05,12.950000000000001,0)" xlink:href="#aR"/><use transform="matrix(0.05,0,0,0.05,22.950000000000003,0)" xlink:href="#bC"/><use transform="matrix(0.05,0,0,0.05,26.900000000000002,0)" xlink:href="#aV"/><use transform="matrix(0.05,0,0,0.05,35.900000000000006,0)" xlink:href="#bD"/><use transform="matrix(0.05,0,0,0.05,45.900000000000006,0)" xlink:href="#bC"/><use transform="matrix(0.05,0,0,0.05,49.85000000000001,0)" xlink:href="#aR"/><use transform="matrix(0.05,0,0,0.05,59.85,0)" xlink:href="#aQ"/><use transform="matrix(0.05,0,0,0.05,64.85000000000001,0)" xlink:href="#aZ"/><use transform="matrix(0.05,0,0,0.05,74.85000000000001,0)" xlink:href="#bE"/><use transform="matrix(0.05,0,0,0.05,84.85000000000001,0)" xlink:href="#aM"/></g><path fill="#3a414a" d="M240 0l2-218c-23 76-54 145-80 218h-23L58-218 59 0H30v-248h44l77 211c21-75 51-140 76-211h43V0h-30" id="bF"/><path fill="#3a414a" d="M68-38c1 34 0 65-14 84H32c9-13 17-26 17-46H33v-38h35" id="bG"/><g id="j"><use transform="matrix(0.05,0,0,0.05,0,0)" xlink:href="#aS"/><use transform="matrix(0.05,0,0,0.05,10,0)" xlink:href="#aR"/><use transform="matrix(0.05,0,0,0.05,20,0)" xlink:href="#aV"/><use transform="matrix(0.05,0,0,0.05,29,0)" xlink:href="#aZ"/><use transform="matrix(0.05,0,0,0.05,39,0)" xlink:href="#aS"/><use transform="matrix(0.05,0,0,0.05,49,0)" xlink:href="#aZ"/><use transform="matrix(0.05,0,0,0.05,59,0)" xlink:href="#aT"/><use transform="matrix(0.05,0,0,0.05,64.95,0)" xlink:href="#bF"/><use transform="matrix(0.05,0,0,0.05,79.9,0)" xlink:href="#aP"/><use transform="matrix(0.05,0,0,0.05,83.85000000000001,0)" xlink:href="#bC"/><use transform="matrix(0.05,0,0,0.05,87.80000000000001,0)" xlink:href="#aZ"/><use transform="matrix(0.05,0,0,0.05,97.80000000000001,0)" xlink:href="#bG"/></g><path fill="#3a414a" d="M194 0L95-120 63-95V0H30v-248h33v124l119-124h40L117-140 236 0h-42" id="bH"/><g id="k"><use transform="matrix(0.05,0,0,0.05,0,0)" xlink:href="#aI"/><use transform="matrix(0.05,0,0,0.05,12,0)" xlink:href="#aR"/><use transform="matrix(0.05,0,0,0.05,22,0)" xlink:href="#aV"/><use transform="matrix(0.05,0,0,0.05,31,0)" xlink:href="#aZ"/><use transform="matrix(0.05,0,0,0.05,41,0)" xlink:href="#aI"/><use transform="matrix(0.05,0,0,0.05,53,0)" xlink:href="#aZ"/><use transform="matrix(0.05,0,0,0.05,63,0)" xlink:href="#aT"/><use transform="matrix(0.05,0,0,0.05,68.95,0)" xlink:href="#bH"/><use transform="matrix(0.05,0,0,0.05,80.95,0)" xlink:href="#aX"/></g><path fill="#3a414a" d="M87 75C49 33 22-17 22-94c0-76 28-126 65-167h31c-38 41-64 92-64 168S80 34 118 75H87" id="bI"/><path fill="#3a414a" d="M33-261c38 41 65 92 65 168S71 34 33 75H2C39 34 66-17 66-93S39-220 2-261h31" id="bJ"/><g id="l"><use transform="matrix(0.05,0,0,0.05,0,0)" xlink:href="#aV"/><use transform="matrix(0.05,0,0,0.05,9,0)" xlink:href="#aR"/><use transform="matrix(0.05,0,0,0.05,19,0)" xlink:href="#bC"/><use transform="matrix(0.05,0,0,0.05,22.95,0)" xlink:href="#aV"/><use transform="matrix(0.05,0,0,0.05,31.950000000000003,0)" xlink:href="#bD"/><use transform="matrix(0.05,0,0,0.05,41.95,0)" xlink:href="#bC"/><use transform="matrix(0.05,0,0,0.05,45.900000000000006,0)" xlink:href="#aR"/><use transform="matrix(0.05,0,0,0.05,55.900000000000006,0)" xlink:href="#aQ"/><use transform="matrix(0.05,0,0,0.05,60.900000000000006,0)" xlink:href="#aZ"/><use transform="matrix(0.05,0,0,0.05,70.9,0)" xlink:href="#aI"/><use transform="matrix(0.05,0,0,0.05,82.9,0)" xlink:href="#aR"/><use transform="matrix(0.05,0,0,0.05,92.9,0)" xlink:href="#aV"/><use transform="matrix(0.05,0,0,0.05,101.9,0)" xlink:href="#aZ"/><use transform="matrix(0.05,0,0,0.05,111.9,0)" xlink:href="#bI"/><use transform="matrix(0.05,0,0,0.05,117.85000000000001,0)" xlink:href="#aQ"/><use transform="matrix(0.05,0,0,0.05,122.85000000000001,0)" xlink:href="#aP"/><use transform="matrix(0.05,0,0,0.05,126.80000000000001,0)" xlink:href="#aX"/><use transform="matrix(0.05,0,0,0.05,141.75,0)" xlink:href="#aZ"/><use transform="matrix(0.05,0,0,0.05,151.75,0)" xlink:href="#bJ"/></g><g id="m"><use transform="matrix(0.04938271604938272,0,0,0.04938271604938272,0,0)" xlink:href="#bj"/><use transform="matrix(0.04938271604938272,0,0,0.04938271604938272,12.790123456790125,0)" xlink:href="#bn"/><use transform="matrix(0.04938271604938272,0,0,0.04938271604938272,22.66666666666667,0)" xlink:href="#bo"/><use transform="matrix(0.04938271604938272,0,0,0.04938271604938272,31.555555555555557,0)" xlink:href="#bf"/><use transform="matrix(0.04938271604938272,0,0,0.04938271604938272,41.4320987654321,0)" xlink:href="#bx"/><use transform="matrix(0.04938271604938272,0,0,0.04938271604938272,53.283950617283956,0)" xlink:href="#bn"/><use transform="matrix(0.04938271604938272,0,0,0.04938271604938272,63.1604938271605,0)" xlink:href="#bo"/><use transform="matrix(0.04938271604938272,0,0,0.04938271604938272,72.0493827160494,0)" xlink:href="#bf"/><use transform="matrix(0.04938271604938272,0,0,0.04938271604938272,81.92592592592594,0)" xlink:href="#bb"/><use transform="matrix(0.04938271604938272,0,0,0.04938271604938272,94.71604938271606,0)" xlink:href="#bn"/><use transform="matrix(0.04938271604938272,0,0,0.04938271604938272,104.5925925925926,0)" xlink:href="#by"/><use transform="matrix(0.04938271604938272,0,0,0.04938271604938272,108.49382716049386,0)" xlink:href="#bo"/><path fill="#333" d="M-.9 1.23h119.17v1.3H-.9z"/></g><path fill="#333" d="M240 0l2-218c-23 76-54 145-80 218h-23L58-218 59 0H30v-248h44l77 211c21-75 51-140 76-211h43V0h-30" id="bK"/><g id="n"><use transform="matrix(0.04938271604938272,0,0,0.04938271604938272,0,0)" xlink:href="#bK"/><use transform="matrix(0.04938271604938272,0,0,0.04938271604938272,14.765432098765434,0)" xlink:href="#bl"/><use transform="matrix(0.04938271604938272,0,0,0.04938271604938272,18.666666666666668,0)" xlink:href="#bo"/><use transform="matrix(0.04938271604938272,0,0,0.04938271604938272,27.555555555555557,0)" xlink:href="#bg"/><use transform="matrix(0.04938271604938272,0,0,0.04938271604938272,33.4320987654321,0)" xlink:href="#bc"/><use transform="matrix(0.04938271604938272,0,0,0.04938271604938272,43.308641975308646,0)" xlink:href="#bp"/><use transform="matrix(0.04938271604938272,0,0,0.04938271604938272,52.19753086419754,0)" xlink:href="#bf"/><use transform="matrix(0.04938271604938272,0,0,0.04938271604938272,62.074074074074076,0)" xlink:href="#bg"/><use transform="matrix(0.04938271604938272,0,0,0.04938271604938272,67.95061728395062,0)" xlink:href="#be"/><use transform="matrix(0.04938271604938272,0,0,0.04938271604938272,76.8395061728395,0)" xlink:href="#bl"/><use transform="matrix(0.04938271604938272,0,0,0.04938271604938272,80.74074074074075,0)" xlink:href="#bo"/><use transform="matrix(0.04938271604938272,0,0,0.04938271604938272,89.62962962962963,0)" xlink:href="#bf"/><path fill="#333" d="M-.9 1.23h101.3v1.3H-.9z"/></g><path fill="#3a414a" d="M30 0v-248h187v28H63v79h144v27H63v87h162V0H30" id="bL"/><g id="o"><use transform="matrix(0.05,0,0,0.05,0,0)" xlink:href="#bL"/><use transform="matrix(0.05,0,0,0.05,12,0)" xlink:href="#aT"/><use transform="matrix(0.05,0,0,0.05,17.95,0)" xlink:href="#aT"/><use transform="matrix(0.05,0,0,0.05,23.9,0)" xlink:href="#aW"/><use transform="matrix(0.05,0,0,0.05,33.9,0)" xlink:href="#aT"/><use transform="matrix(0.05,0,0,0.05,39.85,0)" xlink:href="#aM"/></g><path fill="#3a414a" d="M33 0v-248h34V0H33" id="bM"/><path fill="#3a414a" d="M101-234c-31-9-42 10-38 44h38v23H63V0H32v-167H5v-23h27c-7-52 17-82 69-68v24" id="bN"/><g id="p"><use transform="matrix(0.05,0,0,0.05,0,0)" xlink:href="#bM"/><use transform="matrix(0.05,0,0,0.05,5,0)" xlink:href="#bN"/></g><g id="q"><use transform="matrix(0.05,0,0,0.05,0,0)" xlink:href="#aL"/><use transform="matrix(0.05,0,0,0.05,10.3,0)" xlink:href="#aP"/><use transform="matrix(0.05,0,0,0.05,14.25,0)" xlink:href="#aX"/><use transform="matrix(0.05,0,0,0.05,29.200000000000003,0)" xlink:href="#aZ"/></g><path fill="#3a414a" d="M177-190C167-65 218 103 67 71c-23-6-38-20-44-43l32-5c15 47 100 32 89-28v-30C133-14 115 1 83 1 29 1 15-40 15-95c0-56 16-97 71-98 29-1 48 16 59 35 1-10 0-23 2-32h30zM94-22c36 0 50-32 50-73 0-42-14-75-50-75-39 0-46 34-46 75s6 73 46 73" id="bO"/><g id="r"><use transform="matrix(0.05,0,0,0.05,0,0)" xlink:href="#aX"/><use transform="matrix(0.05,0,0,0.05,14.950000000000001,0)" xlink:href="#aP"/><use transform="matrix(0.05,0,0,0.05,18.900000000000002,0)" xlink:href="#aO"/><use transform="matrix(0.05,0,0,0.05,27.900000000000002,0)" xlink:href="#aO"/><use transform="matrix(0.05,0,0,0.05,36.900000000000006,0)" xlink:href="#aP"/><use transform="matrix(0.05,0,0,0.05,40.85000000000001,0)" xlink:href="#aN"/><use transform="matrix(0.05,0,0,0.05,50.85000000000001,0)" xlink:href="#bO"/></g><g id="s"><use transform="matrix(0.05,0,0,0.05,0,0)" xlink:href="#aW"/><use transform="matrix(0.05,0,0,0.05,10,0)" xlink:href="#aT"/></g><path fill="#3a414a" d="M108 0H70L1-190h34L89-25l56-165h34" id="bP"/><g id="t"><use transform="matrix(0.05,0,0,0.05,0,0)" xlink:href="#aP"/><use transform="matrix(0.05,0,0,0.05,3.95,0)" xlink:href="#aN"/><use transform="matrix(0.05,0,0,0.05,13.949999999999998,0)" xlink:href="#bP"/><use transform="matrix(0.05,0,0,0.05,22.95,0)" xlink:href="#aR"/><use transform="matrix(0.05,0,0,0.05,32.95,0)" xlink:href="#bC"/><use transform="matrix(0.05,0,0,0.05,36.900000000000006,0)" xlink:href="#aP"/><use transform="matrix(0.05,0,0,0.05,40.85000000000001,0)" xlink:href="#bE"/></g><g id="u"><use transform="matrix(0.05,0,0,0.05,0,0)" xlink:href="#bN"/><use transform="matrix(0.05,0,0,0.05,5,0)" xlink:href="#aW"/><use transform="matrix(0.05,0,0,0.05,15,0)" xlink:href="#aT"/><use transform="matrix(0.05,0,0,0.05,20.95,0)" xlink:href="#aX"/><use transform="matrix(0.05,0,0,0.05,35.9,0)" xlink:href="#aR"/><use transform="matrix(0.05,0,0,0.05,45.9,0)" xlink:href="#aQ"/></g><path fill="#3a414a" d="M62-99C39-31 123 0 170-40s38-139 58-208h34C234-144 253 4 115 4 49 4 18-43 31-112l26-136h34" id="bQ"/><path fill="#3a414a" d="M55-144c13 50 104 24 104 88C159 21 15 23 1-39l26-10c6 40 102 42 102-4-13-50-104-23-104-87 0-71 143-71 148-8l-29 4c-5-35-85-37-89 0" id="bR"/><path fill="#3a414a" d="M111-194c62-3 86 47 72 106H45c-7 38 6 69 45 68 27-1 43-14 53-32l24 11C152-15 129 4 87 4 38 3 12-23 12-71c0-70 32-119 99-123zm44 81c14-66-71-72-95-28-4 8-8 17-11 28h106" id="bS"/><path fill="#3a414a" d="M66-151c12-25 30-51 66-40l-6 26C45-176 58-65 38 0H6l36-190h30" id="bT"/><g id="v"><use transform="matrix(0.05,0,0,0.05,0,0)" xlink:href="#bQ"/><use transform="matrix(0.05,0,0,0.05,12.950000000000001,0)" xlink:href="#bR"/><use transform="matrix(0.05,0,0,0.05,21.950000000000003,0)" xlink:href="#bS"/><use transform="matrix(0.05,0,0,0.05,31.950000000000003,0)" xlink:href="#bT"/></g><path fill="#3a414a" d="M67-158c22-48 132-52 116 29L158 0h-32l25-140c3-38-53-32-70-12C52-117 51-52 38 0H6l36-190h30" id="bU"/><path fill="#3a414a" d="M133-28C103 26-5 8 13-77c13-62 24-115 90-117 29-1 46 15 56 35l19-102h32L160 0h-30zM45-64c-2 27 10 43 35 43 54-1 69-50 69-103 0-29-15-46-42-46-53-1-58 58-62 106" id="bV"/><g id="w"><use transform="matrix(0.05,0,0,0.05,0,0)" xlink:href="#bU"/><use transform="matrix(0.05,0,0,0.05,10,0)" xlink:href="#bS"/><use transform="matrix(0.05,0,0,0.05,20,0)" xlink:href="#bS"/><use transform="matrix(0.05,0,0,0.05,30,0)" xlink:href="#bV"/><use transform="matrix(0.05,0,0,0.05,40,0)" xlink:href="#bR"/></g><path fill="#3a414a" d="M51-54c-9 22 5 41 31 30L79-1C43 14 10-4 19-52l22-115H19l5-23h22l19-43h21l-9 43h35l-4 23H73" id="bW"/><path fill="#3a414a" d="M30-147c31-64 166-65 159 27C183-49 158 1 86 4 9 8 1-88 30-147zM88-20c53 0 68-48 68-100 0-31-11-51-44-50-52 1-68 46-68 97 0 32 13 53 44 53" id="bX"/><g id="x"><use transform="matrix(0.05,0,0,0.05,0,0)" xlink:href="#bW"/><use transform="matrix(0.05,0,0,0.05,5,0)" xlink:href="#bX"/></g><path fill="#3a414a" d="M50-231l6-30h32l-6 30H50zM6 0l37-190h31L37 0H6" id="bY"/><path fill="#3a414a" d="M67-162c32-53 139-36 121 50C175-51 163 2 97 4 68 4 52-11 42-31 38 6 28 39 22 75H-9l50-265h29c-1 10 0 20-3 28zm89 36c0-26-10-43-35-43-54 0-67 50-69 103-1 29 14 45 42 46 53 0 62-58 62-106" id="bZ"/><path fill="#3a414a" d="M67 3c-93-2-31-127-26-193h32L48-50c-3 39 53 32 70 12 30-34 30-101 43-152h32L157 0h-30c1-10 6-24 4-33-14 20-29 37-64 36" id="ca"/><g id="y"><use transform="matrix(0.05,0,0,0.05,0,0)" xlink:href="#bY"/><use transform="matrix(0.05,0,0,0.05,3.95,0)" xlink:href="#bU"/><use transform="matrix(0.05,0,0,0.05,13.949999999999998,0)" xlink:href="#bZ"/><use transform="matrix(0.05,0,0,0.05,23.95,0)" xlink:href="#ca"/><use transform="matrix(0.05,0,0,0.05,33.95,0)" xlink:href="#bW"/></g><path fill="#3a414a" d="M9 0l6-27h63l36-188-63 39 6-31 66-41h29L110-27h60l-5 27H9" id="cb"/><path fill="#3a414a" d="M16-82c0-90 25-169 113-169 48 0 68 33 68 82C197-79 170 4 84 4 37 4 16-31 16-82zm30 5c0 32 11 55 40 55 69 0 76-79 80-149 2-32-10-55-39-55-69 0-81 81-81 149" id="cc"/><path fill="#3a414a" d="M180 0L97-118 63-96 45 0H11l48-248h34L69-126c44-43 94-81 141-122h43L121-137 219 0h-39" id="cd"/><g id="z"><use transform="matrix(0.05,0,0,0.05,0,0)" xlink:href="#cb"/><use transform="matrix(0.05,0,0,0.05,10,0)" xlink:href="#cc"/><use transform="matrix(0.05,0,0,0.05,20,0)" xlink:href="#cd"/></g><path fill="#3a414a" d="M248-111c6-24 9-61-24-58-72 9-57 108-77 169h-31l26-142c3-37-50-30-64-10C52-115 50-51 37 0H6l36-190h30c-1 10-6 24-4 32 13-43 101-52 105 5 13-22 29-41 61-41 90 0 28 129 23 194h-31" id="ce"/><g id="A"><use transform="matrix(0.05,0,0,0.05,0,0)" xlink:href="#bW"/><use transform="matrix(0.05,0,0,0.05,5,0)" xlink:href="#bY"/><use transform="matrix(0.05,0,0,0.05,8.95,0)" xlink:href="#ce"/><use transform="matrix(0.05,0,0,0.05,23.9,0)" xlink:href="#bS"/><use transform="matrix(0.05,0,0,0.05,33.9,0)" xlink:href="#bY"/><use transform="matrix(0.05,0,0,0.05,37.85,0)" xlink:href="#bU"/></g><path fill="#3a414a" d="M76-167L44 0H12l33-167H18l4-23h27c3-47 25-81 82-69l-4 24c-35-8-44 15-46 45h37l-5 23H76" id="cf"/><path fill="#3a414a" d="M165-48c-4 18 1 34 23 27l-3 20c-29 8-62 0-52-35h-2C116-14 99 4 63 4 30 4 8-16 8-49c0-68 71-67 138-67 10-26 0-56-31-54-26 1-42 9-47 31l-32-5c8-67 160-71 144 15-5 28-9 54-15 81zM42-50c3 52 80 24 89-6 7-12 7-24 11-38-47 1-103-4-100 44" id="cg"/><g id="B"><use transform="matrix(0.05,0,0,0.05,0,0)" xlink:href="#cf"/><use transform="matrix(0.05,0,0,0.05,5,0)" xlink:href="#bX"/><use transform="matrix(0.05,0,0,0.05,15,0)" xlink:href="#bT"/><use transform="matrix(0.05,0,0,0.05,20.95,0)" xlink:href="#ce"/><use transform="matrix(0.05,0,0,0.05,35.9,0)" xlink:href="#cg"/><use transform="matrix(0.05,0,0,0.05,45.9,0)" xlink:href="#bW"/></g><path fill="#3a414a" d="M179 0l23-115H67L45 0H11l48-248h34L72-143h135l21-105h32L212 0h-33" id="ch"/><path fill="#3a414a" d="M44-154l7-36h35l-8 36H44zM14 0l7-36h35L49 0H14" id="ci"/><path fill="#3a414a" d="M222 0l43-216c-8 16-17 34-26 49L143 0h-22L81-216 41 0H11l48-248h42l38 208 116-208h45L252 0h-30" id="cj"/><path fill="#3a414a" d="M194-120c59 52 2 134-86 124-53-6-90-18-98-63l31-7c8 30 29 43 70 43 46 0 84-17 71-62-32-43-135-20-137-98-3-89 178-90 191-16l-30 9c-8-48-127-53-127 5 0 53 81 35 115 65" id="ck"/><g id="C"><use transform="matrix(0.05,0,0,0.05,0,0)" xlink:href="#ch"/><use transform="matrix(0.05,0,0,0.05,12.950000000000001,0)" xlink:href="#ch"/><use transform="matrix(0.05,0,0,0.05,25.900000000000002,0)" xlink:href="#ci"/><use transform="matrix(0.05,0,0,0.05,30.900000000000002,0)" xlink:href="#cj"/><use transform="matrix(0.05,0,0,0.05,45.85,0)" xlink:href="#cj"/><use transform="matrix(0.05,0,0,0.05,60.800000000000004,0)" xlink:href="#ci"/><use transform="matrix(0.05,0,0,0.05,65.80000000000001,0)" xlink:href="#ck"/><use transform="matrix(0.05,0,0,0.05,77.80000000000001,0)" xlink:href="#ck"/></g><path fill="#3a414a" d="M249-183c0 48-29 72-75 77L221 0h-36l-43-103H65L45 0H11l48-248c83 2 190-17 190 65zm-34 3c0-55-74-39-127-41l-18 92c63-1 145 13 145-51" id="cl"/><g id="D"><use transform="matrix(0.05,0,0,0.05,0,0)" xlink:href="#cl"/><use transform="matrix(0.05,0,0,0.05,12.950000000000001,0)" xlink:href="#bS"/><use transform="matrix(0.05,0,0,0.05,22.950000000000003,0)" xlink:href="#bW"/><use transform="matrix(0.05,0,0,0.05,27.950000000000003,0)" xlink:href="#ca"/><use transform="matrix(0.05,0,0,0.05,37.95,0)" xlink:href="#bT"/><use transform="matrix(0.05,0,0,0.05,43.900000000000006,0)" xlink:href="#bU"/><use transform="matrix(0.05,0,0,0.05,53.900000000000006,0)" xlink:href="#bS"/><use transform="matrix(0.05,0,0,0.05,63.900000000000006,0)" xlink:href="#bV"/></g><path fill="#3a414a" d="M44-68c0 29 11 47 38 47 30 0 42-19 51-41l28 9C148-21 126 4 82 4 31 4 10-29 12-85c3-77 74-140 146-93 12 8 15 23 18 40l-31 5c-1-22-13-36-36-36-52 0-65 49-65 101" id="cm"/><path fill="#3a414a" d="M6 0l50-261h32L37 0H6" id="cn"/><g id="E"><use transform="matrix(0.05,0,0,0.05,0,0)" xlink:href="#cm"/><use transform="matrix(0.05,0,0,0.05,9,0)" xlink:href="#cg"/><use transform="matrix(0.05,0,0,0.05,19,0)" xlink:href="#cn"/><use transform="matrix(0.05,0,0,0.05,22.95,0)" xlink:href="#cm"/><use transform="matrix(0.05,0,0,0.05,31.950000000000003,0)" xlink:href="#ca"/><use transform="matrix(0.05,0,0,0.05,41.95,0)" xlink:href="#cn"/><use transform="matrix(0.05,0,0,0.05,45.900000000000006,0)" xlink:href="#cg"/><use transform="matrix(0.05,0,0,0.05,55.900000000000006,0)" xlink:href="#bW"/><use transform="matrix(0.05,0,0,0.05,60.900000000000006,0)" xlink:href="#bY"/><use transform="matrix(0.05,0,0,0.05,64.85000000000001,0)" xlink:href="#bX"/><use transform="matrix(0.05,0,0,0.05,74.85000000000001,0)" xlink:href="#bU"/></g><g id="F"><use transform="matrix(0.05,0,0,0.05,0,0)" xlink:href="#bY"/><use transform="matrix(0.05,0,0,0.05,3.95,0)" xlink:href="#bU"/><use transform="matrix(0.05,0,0,0.05,13.949999999999998,0)" xlink:href="#cm"/><use transform="matrix(0.05,0,0,0.05,22.95,0)" xlink:href="#cn"/><use transform="matrix(0.05,0,0,0.05,26.899999999999995,0)" xlink:href="#ca"/><use transform="matrix(0.05,0,0,0.05,36.9,0)" xlink:href="#bV"/><use transform="matrix(0.05,0,0,0.05,46.9,0)" xlink:href="#bS"/></g><g id="G"><use transform="matrix(0.05,0,0,0.05,0,0)" xlink:href="#bZ"/><use transform="matrix(0.05,0,0,0.05,10,0)" xlink:href="#cg"/><use transform="matrix(0.05,0,0,0.05,20,0)" xlink:href="#cm"/><use transform="matrix(0.05,0,0,0.05,29,0)" xlink:href="#bS"/></g><g id="H"><use transform="matrix(0.05,0,0,0.05,0,0)" xlink:href="#bW"/><use transform="matrix(0.05,0,0,0.05,5,0)" xlink:href="#bY"/><use transform="matrix(0.05,0,0,0.05,8.95,0)" xlink:href="#ce"/><use transform="matrix(0.05,0,0,0.05,23.9,0)" xlink:href="#bS"/></g><g id="I"><use transform="matrix(0.05,0,0,0.05,0,0)" xlink:href="#bY"/><use transform="matrix(0.05,0,0,0.05,3.95,0)" xlink:href="#bU"/></g><path fill="#3a414a" d="M68-162c25-46 127-43 121 31C183-60 169 1 98 4 69 5 53-11 43-31L36 0H5l52-261h31zm88 36c2-27-9-43-34-43-55 0-70 51-70 103 0 29 15 45 43 46 52 0 58-58 61-106" id="co"/><path fill="#3a414a" d="M67-158c15-20 31-36 64-36 94 0 33 127 27 194h-32l25-140c3-38-53-32-70-12C52-117 51-51 37 0H6l51-261h31" id="cp"/><g id="J"><use transform="matrix(0.05,0,0,0.05,0,0)" xlink:href="#co"/><use transform="matrix(0.05,0,0,0.05,10,0)" xlink:href="#bX"/><use transform="matrix(0.05,0,0,0.05,20,0)" xlink:href="#bW"/><use transform="matrix(0.05,0,0,0.05,25,0)" xlink:href="#cp"/></g><g id="K"><use transform="matrix(0.05,0,0,0.05,0,0)" xlink:href="#bZ"/><use transform="matrix(0.05,0,0,0.05,10,0)" xlink:href="#bS"/><use transform="matrix(0.05,0,0,0.05,20,0)" xlink:href="#bT"/></g><g id="L"><use transform="matrix(0.05,0,0,0.05,0,0)" xlink:href="#ce"/><use transform="matrix(0.05,0,0,0.05,14.950000000000001,0)" xlink:href="#bY"/><use transform="matrix(0.05,0,0,0.05,18.900000000000002,0)" xlink:href="#cn"/><use transform="matrix(0.05,0,0,0.05,22.85,0)" xlink:href="#bS"/></g><g id="M"><use transform="matrix(0.05,0,0,0.05,0,0)" xlink:href="#cg"/><use transform="matrix(0.05,0,0,0.05,10,0)" xlink:href="#bU"/><use transform="matrix(0.05,0,0,0.05,20,0)" xlink:href="#bV"/></g><g id="N"><use transform="matrix(0.05,0,0,0.05,0,0)" xlink:href="#cd"/><use transform="matrix(0.05,0,0,0.05,12,0)" xlink:href="#cj"/></g><path fill="#3a414a" d="M11 0l48-248h184l-5 28H87l-15 79h140l-5 27H67L50-27h158l-5 27H11" id="cq"/><g id="O"><use transform="matrix(0.05,0,0,0.05,0,0)" xlink:href="#cq"/><use transform="matrix(0.05,0,0,0.05,12,0)" xlink:href="#bT"/><use transform="matrix(0.05,0,0,0.05,17.95,0)" xlink:href="#bT"/><use transform="matrix(0.05,0,0,0.05,23.9,0)" xlink:href="#bX"/><use transform="matrix(0.05,0,0,0.05,33.9,0)" xlink:href="#bT"/></g><path fill="#3a414a" d="M127 0L80-88 50-66 37 0H6l51-261h31L57-100l99-90h39l-93 82L161 0h-34" id="cr"/><g id="P"><use transform="matrix(0.05,0,0,0.05,0,0)" xlink:href="#cm"/><use transform="matrix(0.05,0,0,0.05,9,0)" xlink:href="#cp"/><use transform="matrix(0.05,0,0,0.05,19,0)" xlink:href="#bS"/><use transform="matrix(0.05,0,0,0.05,29,0)" xlink:href="#cm"/><use transform="matrix(0.05,0,0,0.05,38,0)" xlink:href="#cr"/><use transform="matrix(0.05,0,0,0.05,47,0)" xlink:href="#bR"/><use transform="matrix(0.05,0,0,0.05,56,0)" xlink:href="#ci"/></g><g id="Q"><use transform="matrix(0.05,0,0,0.05,0,0)" xlink:href="#cj"/><use transform="matrix(0.05,0,0,0.05,14.950000000000001,0)" xlink:href="#cg"/><use transform="matrix(0.05,0,0,0.05,24.950000000000003,0)" xlink:href="#cr"/><use transform="matrix(0.05,0,0,0.05,33.95,0)" xlink:href="#bS"/></g><g id="R"><use transform="matrix(0.05,0,0,0.05,0,0)" xlink:href="#bR"/><use transform="matrix(0.05,0,0,0.05,9,0)" xlink:href="#ca"/><use transform="matrix(0.05,0,0,0.05,19,0)" xlink:href="#bT"/><use transform="matrix(0.05,0,0,0.05,24.95,0)" xlink:href="#bS"/></g><g id="S"><use transform="matrix(0.05,0,0,0.05,0,0)" xlink:href="#bW"/><use transform="matrix(0.05,0,0,0.05,5,0)" xlink:href="#bY"/><use transform="matrix(0.05,0,0,0.05,8.95,0)" xlink:href="#ce"/><use transform="matrix(0.05,0,0,0.05,23.9,0)" xlink:href="#bS"/></g><g id="T"><use transform="matrix(0.05,0,0,0.05,0,0)" xlink:href="#bY"/><use transform="matrix(0.05,0,0,0.05,3.95,0)" xlink:href="#bR"/></g><g id="U"><use transform="matrix(0.05,0,0,0.05,0,0)" xlink:href="#bU"/><use transform="matrix(0.05,0,0,0.05,10,0)" xlink:href="#bX"/><use transform="matrix(0.05,0,0,0.05,20,0)" xlink:href="#bW"/></g><path fill="#3a414a" d="M198-190L69 30C53 58 25 83-20 72c4-11-1-27 19-22 33-1 43-29 59-52L20-190h32L79-34l84-156h35" id="cs"/><g id="V"><use transform="matrix(0.05,0,0,0.05,0,0)" xlink:href="#bS"/><use transform="matrix(0.05,0,0,0.05,10,0)" xlink:href="#ce"/><use transform="matrix(0.05,0,0,0.05,24.950000000000003,0)" xlink:href="#bZ"/><use transform="matrix(0.05,0,0,0.05,34.95,0)" xlink:href="#bW"/><use transform="matrix(0.05,0,0,0.05,39.95,0)" xlink:href="#cs"/></g><g id="W"><use transform="matrix(0.05,0,0,0.05,0,0)" xlink:href="#bW"/><use transform="matrix(0.05,0,0,0.05,5,0)" xlink:href="#cp"/><use transform="matrix(0.05,0,0,0.05,15,0)" xlink:href="#cg"/><use transform="matrix(0.05,0,0,0.05,25,0)" xlink:href="#bW"/></g><path fill="#3a414a" d="M89 0H52L20-190h33L74-25l89-165h34" id="ct"/><g id="X"><use transform="matrix(0.05,0,0,0.05,0,0)" xlink:href="#ct"/><use transform="matrix(0.05,0,0,0.05,9,0)" xlink:href="#cg"/><use transform="matrix(0.05,0,0,0.05,19,0)" xlink:href="#cn"/><use transform="matrix(0.05,0,0,0.05,22.95,0)" xlink:href="#ca"/><use transform="matrix(0.05,0,0,0.05,32.95,0)" xlink:href="#bS"/><use transform="matrix(0.05,0,0,0.05,42.95,0)" xlink:href="#bR"/></g><g id="Y"><use transform="matrix(0.05,0,0,0.05,0,0)" xlink:href="#cf"/><use transform="matrix(0.05,0,0,0.05,5,0)" xlink:href="#bX"/><use transform="matrix(0.05,0,0,0.05,15,0)" xlink:href="#bT"/></g><path fill="#3a414a" d="M14 0l8-38h34L48 0H14" id="cu"/><g id="Z"><use transform="matrix(0.05,0,0,0.05,0,0)" xlink:href="#ch"/><use transform="matrix(0.05,0,0,0.05,12.950000000000001,0)" xlink:href="#ch"/><use transform="matrix(0.05,0,0,0.05,25.900000000000002,0)" xlink:href="#cu"/></g><g id="aa"><use transform="matrix(0.05,0,0,0.05,0,0)" xlink:href="#cj"/><use transform="matrix(0.05,0,0,0.05,14.950000000000001,0)" xlink:href="#cj"/></g><g id="ab"><use transform="matrix(0.05,0,0,0.05,0,0)" xlink:href="#cg"/><use transform="matrix(0.05,0,0,0.05,10,0)" xlink:href="#bU"/><use transform="matrix(0.05,0,0,0.05,20,0)" xlink:href="#bV"/></g><g id="ac"><use transform="matrix(0.05,0,0,0.05,0,0)" xlink:href="#ck"/><use transform="matrix(0.05,0,0,0.05,12,0)" xlink:href="#ck"/></g><use transform="matrix(0.05,0,0,0.05,0,0)" xlink:href="#cg" id="ad"/><g id="ae"><use transform="matrix(0.05,0,0,0.05,0,0)" xlink:href="#bU"/><use transform="matrix(0.05,0,0,0.05,10,0)" xlink:href="#ca"/><use transform="matrix(0.05,0,0,0.05,20,0)" xlink:href="#ce"/><use transform="matrix(0.05,0,0,0.05,34.95,0)" xlink:href="#co"/><use transform="matrix(0.05,0,0,0.05,44.95,0)" xlink:href="#bS"/><use transform="matrix(0.05,0,0,0.05,54.95,0)" xlink:href="#bT"/><use transform="matrix(0.05,0,0,0.05,60.25,0)" xlink:href="#cu"/></g><path fill="#3a414a" d="M103-194c29 0 47 14 56 36 2-11 5-23 8-32h30L160-5C157 61 82 97 21 62 9 55 4 45 1 30l28-7c7 42 83 31 92-3 4-16 9-38 13-55-13 20-29 36-62 36-40 0-60-25-60-64 0-71 23-131 91-131zm4 24c-53 0-58 54-61 104-2 27 10 44 36 44 49 0 65-50 67-102 1-29-15-46-42-46" id="cv"/><g id="af"><use transform="matrix(0.05,0,0,0.05,0,0)" xlink:href="#bQ"/><use transform="matrix(0.05,0,0,0.05,12.950000000000001,0)" xlink:href="#bR"/><use transform="matrix(0.05,0,0,0.05,21.950000000000003,0)" xlink:href="#bY"/><use transform="matrix(0.05,0,0,0.05,25.900000000000002,0)" xlink:href="#bU"/><use transform="matrix(0.05,0,0,0.05,35.900000000000006,0)" xlink:href="#cv"/></g><path fill="#3a414a" d="M124 0L87-78 21 0h-35l86-98-46-92h33l34 74 61-74h37l-83 92 50 98h-34" id="cw"/><g id="ag"><use transform="matrix(0.05,0,0,0.05,0,0)" xlink:href="#bS"/><use transform="matrix(0.05,0,0,0.05,10,0)" xlink:href="#cw"/><use transform="matrix(0.05,0,0,0.05,19,0)" xlink:href="#cg"/><use transform="matrix(0.05,0,0,0.05,29,0)" xlink:href="#ce"/><use transform="matrix(0.05,0,0,0.05,43.95,0)" xlink:href="#bZ"/><use transform="matrix(0.05,0,0,0.05,53.95,0)" xlink:href="#cn"/><use transform="matrix(0.05,0,0,0.05,57.900000000000006,0)" xlink:href="#bS"/></g><g id="ah"><use transform="matrix(0.05,0,0,0.05,0,0)" xlink:href="#bX"/><use transform="matrix(0.05,0,0,0.05,10,0)" xlink:href="#cf"/></g><g id="ai"><use transform="matrix(0.05,0,0,0.05,0,0)" xlink:href="#bV"/><use transform="matrix(0.05,0,0,0.05,10,0)" xlink:href="#bS"/><use transform="matrix(0.05,0,0,0.05,20,0)" xlink:href="#bZ"/><use transform="matrix(0.05,0,0,0.05,30,0)" xlink:href="#cn"/><use transform="matrix(0.05,0,0,0.05,33.95,0)" xlink:href="#bX"/><use transform="matrix(0.05,0,0,0.05,43.95,0)" xlink:href="#cs"/><use transform="matrix(0.05,0,0,0.05,52.95,0)" xlink:href="#bS"/><use transform="matrix(0.05,0,0,0.05,62.95,0)" xlink:href="#bV"/></g><path fill="#3a414a" d="M58-38C53-5 46 26 28 46H7C19 32 27 18 32 0H17l7-38h34" id="cx"/><g id="aj"><use transform="matrix(0.05,0,0,0.05,0,0)" xlink:href="#bV"/><use transform="matrix(0.05,0,0,0.05,10,0)" xlink:href="#bX"/><use transform="matrix(0.05,0,0,0.05,20,0)" xlink:href="#ce"/><use transform="matrix(0.05,0,0,0.05,34.95,0)" xlink:href="#cg"/><use transform="matrix(0.05,0,0,0.05,44.95,0)" xlink:href="#bY"/><use transform="matrix(0.05,0,0,0.05,48.900000000000006,0)" xlink:href="#bU"/><use transform="matrix(0.05,0,0,0.05,58.900000000000006,0)" xlink:href="#cx"/></g><g id="ak"><use transform="matrix(0.05,0,0,0.05,0,0)" xlink:href="#co"/><use transform="matrix(0.05,0,0,0.05,10,0)" xlink:href="#ca"/><use transform="matrix(0.05,0,0,0.05,20,0)" xlink:href="#bW"/></g><g id="al"><use transform="matrix(0.05,0,0,0.05,0,0)" xlink:href="#bY"/><use transform="matrix(0.05,0,0,0.05,3.95,0)" xlink:href="#cf"/></g><g id="am"><use transform="matrix(0.05,0,0,0.05,0,0)" xlink:href="#bY"/><use transform="matrix(0.05,0,0,0.05,3.95,0)" xlink:href="#bW"/><use transform="matrix(0.05,0,0,0.05,8.95,0)" xlink:href="#bR"/></g><g id="an"><use transform="matrix(0.05,0,0,0.05,0,0)" xlink:href="#cn"/><use transform="matrix(0.05,0,0,0.05,3.95,0)" xlink:href="#bX"/><use transform="matrix(0.05,0,0,0.05,13.949999999999998,0)" xlink:href="#cm"/><use transform="matrix(0.05,0,0,0.05,22.95,0)" xlink:href="#cg"/><use transform="matrix(0.05,0,0,0.05,32.95,0)" xlink:href="#cn"/><use transform="matrix(0.05,0,0,0.05,36.900000000000006,0)" xlink:href="#cp"/><use transform="matrix(0.05,0,0,0.05,46.900000000000006,0)" xlink:href="#bX"/><use transform="matrix(0.05,0,0,0.05,56.900000000000006,0)" xlink:href="#bR"/><use transform="matrix(0.05,0,0,0.05,65.9,0)" xlink:href="#bW"/></g><g id="ao"><use transform="matrix(0.05,0,0,0.05,0,0)" xlink:href="#bX"/><use transform="matrix(0.05,0,0,0.05,10,0)" xlink:href="#bT"/></g><g id="ap"><use transform="matrix(0.05,0,0,0.05,0,0)" xlink:href="#cg"/><use transform="matrix(0.05,0,0,0.05,10,0)" xlink:href="#bU"/><use transform="matrix(0.05,0,0,0.05,20,0)" xlink:href="#bX"/><use transform="matrix(0.05,0,0,0.05,30,0)" xlink:href="#bW"/><use transform="matrix(0.05,0,0,0.05,35,0)" xlink:href="#cp"/><use transform="matrix(0.05,0,0,0.05,45,0)" xlink:href="#bS"/><use transform="matrix(0.05,0,0,0.05,55,0)" xlink:href="#bT"/></g><g id="aq"><use transform="matrix(0.05,0,0,0.05,0,0)" xlink:href="#bV"/><use transform="matrix(0.05,0,0,0.05,10,0)" xlink:href="#bX"/><use transform="matrix(0.05,0,0,0.05,20,0)" xlink:href="#ce"/><use transform="matrix(0.05,0,0,0.05,34.95,0)" xlink:href="#cg"/><use transform="matrix(0.05,0,0,0.05,44.95,0)" xlink:href="#bY"/><use transform="matrix(0.05,0,0,0.05,48.900000000000006,0)" xlink:href="#bU"/></g><path fill="#3a414a" d="M18-82l6-28h88l-6 28H18" id="cy"/><use transform="matrix(0.05,0,0,0.05,0,0)" xlink:href="#cy" id="ar"/><g id="as"><use transform="matrix(0.05,0,0,0.05,0,0)" xlink:href="#bU"/><use transform="matrix(0.05,0,0,0.05,10,0)" xlink:href="#bR"/><use transform="matrix(0.05,0,0,0.05,19,0)" xlink:href="#bY"/><use transform="matrix(0.05,0,0,0.05,22.95,0)" xlink:href="#bW"/><use transform="matrix(0.05,0,0,0.05,27.950000000000003,0)" xlink:href="#cg"/><use transform="matrix(0.05,0,0,0.05,37.95,0)" xlink:href="#bZ"/><use transform="matrix(0.05,0,0,0.05,47.95,0)" xlink:href="#cg"/><use transform="matrix(0.05,0,0,0.05,57.95,0)" xlink:href="#bT"/><use transform="matrix(0.05,0,0,0.05,63.900000000000006,0)" xlink:href="#cg"/><use transform="matrix(0.05,0,0,0.05,73.9,0)" xlink:href="#cu"/><use transform="matrix(0.05,0,0,0.05,78.9,0)" xlink:href="#cm"/><use transform="matrix(0.05,0,0,0.05,87.9,0)" xlink:href="#bX"/><use transform="matrix(0.05,0,0,0.05,97.9,0)" xlink:href="#ce"/><path fill="#8080ff" d="M-.9 1.25h114.65v1.32H-.9z"/></g><g id="at"><use transform="matrix(0.05,0,0,0.05,0,0)" xlink:href="#bY"/><use transform="matrix(0.05,0,0,0.05,3.95,0)" xlink:href="#bR"/></g><g id="au"><use transform="matrix(0.05,0,0,0.05,0,0)" xlink:href="#bT"/><use transform="matrix(0.05,0,0,0.05,5.95,0)" xlink:href="#bS"/><use transform="matrix(0.05,0,0,0.05,15.949999999999998,0)" xlink:href="#bZ"/><use transform="matrix(0.05,0,0,0.05,25.950000000000003,0)" xlink:href="#cn"/><use transform="matrix(0.05,0,0,0.05,29.899999999999995,0)" xlink:href="#cg"/><use transform="matrix(0.05,0,0,0.05,39.9,0)" xlink:href="#cm"/><use transform="matrix(0.05,0,0,0.05,48.9,0)" xlink:href="#bS"/><use transform="matrix(0.05,0,0,0.05,58.900000000000006,0)" xlink:href="#bV"/></g><g id="av"><use transform="matrix(0.05,0,0,0.05,0,0)" xlink:href="#cg"/><use transform="matrix(0.05,0,0,0.05,10,0)" xlink:href="#cm"/><use transform="matrix(0.05,0,0,0.05,19,0)" xlink:href="#cm"/><use transform="matrix(0.05,0,0,0.05,28,0)" xlink:href="#bX"/><use transform="matrix(0.05,0,0,0.05,38,0)" xlink:href="#bT"/><use transform="matrix(0.05,0,0,0.05,43.95,0)" xlink:href="#bV"/><use transform="matrix(0.05,0,0,0.05,53.95,0)" xlink:href="#cn"/><use transform="matrix(0.05,0,0,0.05,57.900000000000006,0)" xlink:href="#bY"/><use transform="matrix(0.05,0,0,0.05,61.85,0)" xlink:href="#bU"/><use transform="matrix(0.05,0,0,0.05,71.85000000000001,0)" xlink:href="#cv"/><use transform="matrix(0.05,0,0,0.05,81.85000000000001,0)" xlink:href="#cu"/></g><g id="aw"><use transform="matrix(0.05,0,0,0.05,0,0)" xlink:href="#cl"/><use transform="matrix(0.05,0,0,0.05,12.950000000000001,0)" xlink:href="#bS"/><use transform="matrix(0.05,0,0,0.05,22.950000000000003,0)" xlink:href="#bW"/><use transform="matrix(0.05,0,0,0.05,27.950000000000003,0)" xlink:href="#ca"/><use transform="matrix(0.05,0,0,0.05,37.95,0)" xlink:href="#bT"/><use transform="matrix(0.05,0,0,0.05,43.900000000000006,0)" xlink:href="#bU"/><use transform="matrix(0.05,0,0,0.05,53.900000000000006,0)" xlink:href="#bS"/><use transform="matrix(0.05,0,0,0.05,63.900000000000006,0)" xlink:href="#bV"/></g><g id="ax"><use transform="matrix(0.05,0,0,0.05,0,0)" xlink:href="#bY"/><use transform="matrix(0.05,0,0,0.05,3.95,0)" xlink:href="#bU"/></g><path fill="#3a414a" d="M29-66c0 49 71 55 82 11 13-52 22-111 33-165H93l5-28h85L149-74C151 11 7 37-1-60" id="cz"/><path fill="#3a414a" d="M20-101c0-91 52-143 145-150 126-9 127 168 53 223-23 17-55 32-93 32C57 4 20-33 20-101zm216-33c5-57-18-91-73-90-77 1-110 51-110 125 0 49 23 75 73 75 72-1 104-45 110-110" id="cA"/><path fill="#3a414a" d="M173 0L80-213 41 0H11l48-248h37l94 214 40-214h30L212 0h-39" id="cB"/><g id="ay"><use transform="matrix(0.05,0,0,0.05,0,0)" xlink:href="#cz"/><use transform="matrix(0.05,0,0,0.05,9,0)" xlink:href="#ck"/><use transform="matrix(0.05,0,0,0.05,21,0)" xlink:href="#cA"/><use transform="matrix(0.05,0,0,0.05,35,0)" xlink:href="#cB"/></g><g id="az"><use transform="matrix(0.05,0,0,0.05,0,0)" xlink:href="#cf"/><use transform="matrix(0.05,0,0,0.05,5,0)" xlink:href="#bX"/><use transform="matrix(0.05,0,0,0.05,15,0)" xlink:href="#bT"/><use transform="matrix(0.05,0,0,0.05,20.95,0)" xlink:href="#ce"/><use transform="matrix(0.05,0,0,0.05,35.9,0)" xlink:href="#cg"/><use transform="matrix(0.05,0,0,0.05,45.9,0)" xlink:href="#bW"/><use transform="matrix(0.05,0,0,0.05,50.9,0)" xlink:href="#ci"/></g><path fill="#3a414a" d="M54 8c-6 25-1 50 32 44l-5 23C4 86 23 3 35-54c0-20-11-27-31-28l4-22c93-3 3-173 138-157l-4 23c-85-8-22 124-103 145C80-84 62-28 54 8" id="cC"/><use transform="matrix(0.05,0,0,0.05,0,0)" xlink:href="#cC" id="aA"/><path fill="#3a414a" d="M123-170H98l11-78h32zm-65 0H33l11-78h32" id="cD"/><path fill="#3a414a" d="M238-179c0 84-86 86-175 82L45 0H11l48-248c82 0 179-12 179 69zm-34 1c0-53-64-42-116-43l-19 98c63 0 135 9 135-55" id="cE"/><g id="aB"><use transform="matrix(0.05,0,0,0.05,0,0)" xlink:href="#cD"/><use transform="matrix(0.05,0,0,0.05,6.3500000000000005,0)" xlink:href="#bZ"/><use transform="matrix(0.05,0,0,0.05,16.35,0)" xlink:href="#cg"/><use transform="matrix(0.05,0,0,0.05,26.35,0)" xlink:href="#cm"/><use transform="matrix(0.05,0,0,0.05,35.35,0)" xlink:href="#bS"/><use transform="matrix(0.05,0,0,0.05,45.35,0)" xlink:href="#cE"/><use transform="matrix(0.05,0,0,0.05,57.35,0)" xlink:href="#bS"/><use transform="matrix(0.05,0,0,0.05,67.35,0)" xlink:href="#bT"/><use transform="matrix(0.05,0,0,0.05,73.3,0)" xlink:href="#cj"/><use transform="matrix(0.05,0,0,0.05,88.25,0)" xlink:href="#bY"/><use transform="matrix(0.05,0,0,0.05,92.2,0)" xlink:href="#cn"/><use transform="matrix(0.05,0,0,0.05,96.15,0)" xlink:href="#bS"/><use transform="matrix(0.05,0,0,0.05,106.15,0)" xlink:href="#cD"/><use transform="matrix(0.05,0,0,0.05,112.5,0)" xlink:href="#ci"/></g><g id="aC"><use transform="matrix(0.05,0,0,0.05,0,0)" xlink:href="#cD"/><use transform="matrix(0.05,0,0,0.05,6.3500000000000005,0)" xlink:href="#ch"/><use transform="matrix(0.05,0,0,0.05,19.3,0)" xlink:href="#ch"/><use transform="matrix(0.05,0,0,0.05,32.25,0)" xlink:href="#ci"/><use transform="matrix(0.05,0,0,0.05,37.25,0)" xlink:href="#cj"/><use transform="matrix(0.05,0,0,0.05,52.2,0)" xlink:href="#cj"/><use transform="matrix(0.05,0,0,0.05,67.15,0)" xlink:href="#ci"/><use transform="matrix(0.05,0,0,0.05,72.15,0)" xlink:href="#ck"/><use transform="matrix(0.05,0,0,0.05,84.15,0)" xlink:href="#ck"/><use transform="matrix(0.05,0,0,0.05,96.15,0)" xlink:href="#cD"/></g><g id="aD"><use transform="matrix(0.05,0,0,0.05,0,0)" xlink:href="#cD"/><use transform="matrix(0.05,0,0,0.05,6.3500000000000005,0)" xlink:href="#bZ"/><use transform="matrix(0.05,0,0,0.05,16.35,0)" xlink:href="#cg"/><use transform="matrix(0.05,0,0,0.05,26.35,0)" xlink:href="#cm"/><use transform="matrix(0.05,0,0,0.05,35.35,0)" xlink:href="#bS"/><use transform="matrix(0.05,0,0,0.05,45.35,0)" xlink:href="#cE"/><use transform="matrix(0.05,0,0,0.05,57.35,0)" xlink:href="#bS"/><use transform="matrix(0.05,0,0,0.05,67.35,0)" xlink:href="#bT"/><use transform="matrix(0.05,0,0,0.05,73.3,0)" xlink:href="#cd"/><use transform="matrix(0.05,0,0,0.05,85.3,0)" xlink:href="#ce"/><use transform="matrix(0.05,0,0,0.05,100.25,0)" xlink:href="#cD"/><use transform="matrix(0.05,0,0,0.05,106.59999999999998,0)" xlink:href="#ci"/></g><path fill="#3a414a" d="M65-194c6-26 0-49-32-44l4-23c79-12 59 72 46 129 1 20 12 27 32 28l-5 22C18-77 106 91-28 75l4-23C62 61-3-72 79-93c-41-8-21-66-14-101" id="cF"/><use transform="matrix(0.05,0,0,0.05,0,0)" xlink:href="#cF" id="aE"/><path fill="#3a414a" d="M39-94c74 12-11 154 75 146v23c-44 4-70-10-70-52C44-23 55-84 6-82v-22c81 4-7-162 84-157h24v23c-82-15-2 131-75 144" id="cG"/><use transform="matrix(0.05,0,0,0.05,0,0)" xlink:href="#cG" id="aF"/><path fill="#3a414a" d="M109-170H84l-4-78h32zm-65 0H19l-4-78h33" id="cH"/><path fill="#3a414a" d="M197 0v-115H63V0H30v-248h33v105h134v-105h34V0h-34" id="cI"/><g id="aG"><use transform="matrix(0.05,0,0,0.05,0,0)" xlink:href="#cH"/><use transform="matrix(0.05,0,0,0.05,6.3500000000000005,0)" xlink:href="#aQ"/><use transform="matrix(0.05,0,0,0.05,11.350000000000001,0)" xlink:href="#aP"/><use transform="matrix(0.05,0,0,0.05,15.3,0)" xlink:href="#aX"/><use transform="matrix(0.05,0,0,0.05,30.25,0)" xlink:href="#aZ"/><use transform="matrix(0.05,0,0,0.05,40.25,0)" xlink:href="#cH"/><use transform="matrix(0.05,0,0,0.05,46.6,0)" xlink:href="#aM"/><use transform="matrix(0.05,0,0,0.05,51.6,0)" xlink:href="#cI"/><use transform="matrix(0.05,0,0,0.05,64.55,0)" xlink:href="#cI"/><use transform="matrix(0.05,0,0,0.05,77.5,0)" xlink:href="#aM"/><use transform="matrix(0.05,0,0,0.05,82.5,0)" xlink:href="#bF"/><use transform="matrix(0.05,0,0,0.05,97.45,0)" xlink:href="#bF"/><use transform="matrix(0.05,0,0,0.05,112.4,0)" xlink:href="#aM"/><use transform="matrix(0.05,0,0,0.05,117.4,0)" xlink:href="#aK"/><use transform="matrix(0.05,0,0,0.05,129.4,0)" xlink:href="#aK"/></g><path fill="#3a414a" d="M76-40C78 24 84 88 6 75V52C86 64 9-79 80-94c-40-6-34-59-34-106 1-29-11-41-40-38v-23c44-4 70 10 70 52 0 47-12 108 38 105v22c-26 1-39 14-38 42" id="cJ"/><use transform="matrix(0.05,0,0,0.05,0,0)" xlink:href="#cJ" id="aH"/></defs></g></svg>